<svg version="1.1" xmlns="http://www.w3.org/2000/svg" xmlns:xlink="http://www.w3.org/1999/xlink" width="324.10894" height="50.76487" viewBox="0,0,324.10894,50.76487"><g transform="translate(-19.25,-294.61757)"><g data-paper-data="{&quot;isPaintingLayer&quot;:true}" stroke-linejoin="miter" stroke-miterlimit="10" stroke-dasharray="" stroke-dashoffset="0" style="mix-blend-mode: normal"><path d="M21,306.13304c0,-5.39054 4.37493,-9.76547 9.76547,-9.76547h52.73353c5.39054,0 9.76547,4.37493 9.76547,9.76547v27.73393c0,5.39054 -4.37493,9.76547 -9.76547,9.76547h-52.73353c-5.39054,0 -9.76547,-4.37493 -9.76547,-9.76547z" fill="#000000" fill-rule="nonzero" stroke="#2b2b2b" stroke-width="3.5" stroke-linecap="butt"/><path d="M69.24141,336.99191c-9.39438,0 -16.99191,-7.59753 -16.99191,-16.99191c0,-9.39438 7.59753,-16.99191 16.99191,-16.99191c9.39438,0 16.99191,7.59753 16.99191,16.99191c0,9.39438 -7.59753,16.99191 -16.99191,16.99191zM83.3818,320c0,-7.83191 -6.30849,-14.1404 -14.1404,-14.1404c-7.83191,0 -14.1404,6.30849 -14.1404,14.1404c0,7.83191 6.30849,14.1404 14.1404,14.1404c7.83191,0 14.1404,-6.30849 14.1404,-14.1404zM68.14768,309.53142c0,-0.64452 0.52733,-1.17185 1.17186,-1.17185c0.64452,0 1.17186,0.52733 1.17186,1.17185v10.05843l4.43352,4.43352c0.44921,0.44921 0.44921,1.19139 0,1.66013c-0.46874,0.44921 -1.21092,0.44921 -1.66013,0l-4.76555,-4.76555c-0.11719,-0.11719 -0.20182,-0.24739 -0.2539,-0.39062c-0.0651,-0.13021 -0.09765,-0.27994 -0.09765,-0.44921z" fill="#ffffff" fill-rule="evenodd" stroke="none" stroke-width="1" stroke-linecap="butt"/><path d="M74.39394,325.30303l-5,-5v-11.51515" fill="none" fill-rule="nonzero" stroke="#151515" stroke-width="3.5" stroke-linecap="round"/><path d="M42.85985,331.62879c0,0 3.52382,-6.4382 10.90909,-6.51515c7.0843,-0.07382 11.06061,6.51515 11.06061,6.51515c0,0 -3.37148,6.51515 -11.06061,6.51515c-7.99216,0 -10.90909,-6.51515 -10.90909,-6.51515z" fill="#ffffff" fill-rule="nonzero" stroke="#000000" stroke-width="1.5" stroke-linecap="butt"/><path d="M49.375,332.31061c0,-2.55222 2.06899,-4.62121 4.62121,-4.62121c2.55222,0 4.62121,2.06899 4.62121,4.62121c0,2.55222 -2.06899,4.62121 -4.62121,4.62121c-2.55222,0 -4.62121,-2.06899 -4.62121,-4.62121z" fill="#000000" fill-rule="nonzero" stroke="none" stroke-width="0" stroke-linecap="butt"/><path d="M50.98485,332.87879c0,-1.66836 1.35247,-3.02083 3.02083,-3.02083c1.66836,0 3.02083,1.35247 3.02083,3.02083c0,1.66836 -1.35247,3.02083 -3.02083,3.02083c-1.66836,0 -3.02083,-1.35247 -3.02083,-3.02083z" fill="#ffffff" fill-rule="nonzero" stroke="none" stroke-width="0" stroke-linecap="butt"/><path d="M54.73485,330.84754c0,-0.60406 0.48969,-1.09375 1.09375,-1.09375c0.60406,0 1.09375,0.48969 1.09375,1.09375c0,0.60406 -0.48969,1.09375 -1.09375,1.09375c-0.60406,0 -1.09375,-0.48969 -1.09375,-1.09375z" fill="#000000" fill-rule="nonzero" stroke="none" stroke-width="0" stroke-linecap="butt"/><text transform="translate(27.13068,328.32789) scale(0.61115,0.61115)" font-size="40" xml:space="preserve" fill="#ffffff" fill-rule="nonzero" stroke="none" stroke-width="1" stroke-linecap="butt" stroke-linejoin="miter" stroke-miterlimit="10" stroke-dasharray="" stroke-dashoffset="0" font-family="Sans Serif" font-weight="normal" text-anchor="start" style="mix-blend-mode: normal"><tspan x="0" dy="0">B</tspan></text><path d="M101.65217,306.13304c0,-5.39054 4.37493,-9.76547 9.76547,-9.76547h52.73352c5.39054,0 9.76547,4.37493 9.76547,9.76547v27.73393c0,5.39054 -4.37493,9.76547 -9.76547,9.76547h-52.73352c-5.39054,0 -9.76547,-4.37493 -9.76547,-9.76547z" fill="#000000" fill-rule="nonzero" stroke="#2b2b2b" stroke-width="3.5" stroke-linecap="butt"/><path d="M128.83968,312.54892c0,-2.89648 2.35076,-5.24723 5.24723,-5.24723h28.33507c2.89648,0 5.24724,2.35076 5.24724,5.24723v14.90215c0,2.89648 -2.35076,5.24723 -5.24724,5.24723h-28.33507c-2.89648,0 -5.24723,-2.35076 -5.24723,-5.24723z" fill="#000000" fill-rule="nonzero" stroke="#2b2b2b" stroke-width="2" stroke-linecap="butt"/><path d="M123.51202,331.62879c0,0 3.52382,-6.4382 10.90909,-6.51515c7.08431,-0.07382 11.0606,6.51515 11.0606,6.51515c0,0 -3.37148,6.51515 -11.0606,6.51515c-7.99216,0 -10.90909,-6.51515 -10.90909,-6.51515z" fill="#ffffff" fill-rule="nonzero" stroke="#000000" stroke-width="1.5" stroke-linecap="butt"/><path d="M130.02717,332.31061c0,-2.55223 2.06898,-4.62121 4.62121,-4.62121c2.55222,0 4.62121,2.06898 4.62121,4.62121c0,2.55223 -2.06899,4.62122 -4.62121,4.62122c-2.55222,0 -4.62121,-2.06899 -4.62121,-4.62122z" fill="#000000" fill-rule="nonzero" stroke="none" stroke-width="0" stroke-linecap="butt"/><path d="M131.63702,332.87879c0,-1.66836 1.35247,-3.02083 3.02083,-3.02083c1.66836,0 3.02084,1.35247 3.02084,3.02083c0,1.66836 -1.35248,3.02083 -3.02084,3.02083c-1.66836,0 -3.02083,-1.35247 -3.02083,-3.02083z" fill="#ffffff" fill-rule="nonzero" stroke="none" stroke-width="0" stroke-linecap="butt"/><path d="M135.38702,330.84754c0,-0.60406 0.48969,-1.09375 1.09375,-1.09375c0.60406,0 1.09375,0.48969 1.09375,1.09375c0,0.60406 -0.48969,1.09375 -1.09375,1.09375c-0.60406,0 -1.09375,-0.48969 -1.09375,-1.09375z" fill="#000000" fill-rule="nonzero" stroke="none" stroke-width="0" stroke-linecap="butt"/><text transform="translate(107.78285,328.3279) scale(0.61116,0.61116)" font-size="40" xml:space="preserve" fill="#ffffff" fill-rule="nonzero" stroke="none" stroke-width="1" stroke-linecap="butt" stroke-linejoin="miter" stroke-miterlimit="10" stroke-dasharray="" stroke-dashoffset="0" font-family="Sans Serif" font-weight="normal" text-anchor="start" style="mix-blend-mode: normal"><tspan x="0" dy="0">U</tspan></text><path d="M269.34448,306.13304c0,-5.39054 4.37493,-9.76547 9.76547,-9.76547h52.73352c5.39054,0 9.76547,4.37493 9.76547,9.76547v27.73393c0,5.39054 -4.37493,9.76547 -9.76547,9.76547h-52.73352c-5.39054,0 -9.76547,-4.37493 -9.76547,-9.76547z" fill="#000000" fill-rule="nonzero" stroke="#2b2b2b" stroke-width="3.5" stroke-linecap="butt"/><path d="M275.1537,319.01316v-16.84211h16.84211v16.84211z" fill="#ffffff" fill-rule="nonzero" stroke="none" stroke-width="0" stroke-linecap="butt"/><path d="M282.69994,317.45927v-9.66462h1.74963v9.66462z" fill="#000000" fill-rule="nonzero" stroke="none" stroke-width="0" stroke-linecap="butt"/><path d="M279.71334,309.08604l3.86141,-5.36109l3.86141,5.36109z" fill="#000000" fill-rule="nonzero" stroke="none" stroke-width="0" stroke-linecap="butt"/><path d="M291.99581,320.98685v16.84211h-16.8421v-16.84211z" data-paper-data="{&quot;index&quot;:null}" fill="#ffffff" fill-rule="nonzero" stroke="none" stroke-width="0" stroke-linecap="butt"/><path d="M284.44957,322.54074v9.66463h-1.74963v-9.66463z" data-paper-data="{&quot;index&quot;:null}" fill="#000000" fill-rule="nonzero" stroke="none" stroke-width="0" stroke-linecap="butt"/><path d="M287.43616,330.91397l-3.86141,5.3611l-3.86141,-5.3611z" data-paper-data="{&quot;index&quot;:null}" fill="#000000" fill-rule="nonzero" stroke="none" stroke-width="0" stroke-linecap="butt"/><path d="M310.7921,338.99191c-8.10933,0 -14.6676,-6.55827 -14.6676,-14.6676c0,-8.10933 6.55827,-14.6676 14.6676,-14.6676c8.10933,0 14.6676,6.55827 14.6676,14.6676c0,8.10933 -6.55827,14.6676 -14.6676,14.6676zM322.99824,324.32431c0,-6.76059 -5.44556,-12.20615 -12.20615,-12.20615c-6.76059,0 -12.20615,5.44556 -12.20615,12.20615c0,6.76059 5.44556,12.20615 12.20615,12.20615c6.76059,0 12.20615,-5.44556 12.20615,-12.20615zM309.84798,315.28772c0,-0.55636 0.4552,-1.01155 1.01156,-1.01155c0.55636,0 1.01156,0.4552 1.01156,1.01155v8.68255l3.82706,3.82706c0.38776,0.38776 0.38776,1.02842 0,1.43304c-0.40462,0.38776 -1.04528,0.38776 -1.43304,0l-4.11367,-4.11367c-0.10116,-0.10116 -0.17421,-0.21355 -0.21917,-0.33719c-0.0562,-0.1124 -0.08429,-0.24165 -0.08429,-0.38776z" fill="#ffffff" fill-rule="evenodd" stroke="none" stroke-width="1" stroke-linecap="butt"/><g fill-rule="nonzero" stroke="#ffffff" stroke-width="0" stroke-linecap="butt"><path d="M323.54361,312.07178l6.83392,-6.83391l1.23717,1.23717l-6.83392,6.83391z" fill="#333333"/><path d="M327.35253,304.03917l6.5213,-1.06044l-1.06043,6.52129z" fill="#333333"/><path d="M329.24463,313.06879l-6.5213,1.06043l1.06043,-6.52129z" data-paper-data="{&quot;index&quot;:null}" fill="#333333"/><path d="M323.70867,311.18289l6.83392,-6.83392l1.23718,1.23718l-6.83392,6.83392z" fill="#ffffff"/><path d="M327.5176,303.15028l6.52129,-1.06043l-1.06043,6.52129z" fill="#ffffff"/><path d="M329.40969,312.1799l-6.52129,1.06043l1.06043,-6.52129z" data-paper-data="{&quot;index&quot;:null}" fill="#ffffff"/></g></g></g></svg>