<svg version="1.1" xmlns="http://www.w3.org/2000/svg" xmlns:xlink="http://www.w3.org/1999/xlink" width="164" height="107.26486" viewBox="0,0,164,107.26486"><g transform="translate(-98,-126.36757)"><g data-paper-data="{&quot;isPaintingLayer&quot;:true}" stroke="none" stroke-width="1" stroke-linecap="butt" stroke-linejoin="miter" stroke-miterlimit="10" stroke-dasharray="" stroke-dashoffset="0" style="mix-blend-mode: normal"><path d="M98,148.52973c0,-12.23351 9.92865,-22.16216 22.16216,-22.16216h119.67568c12.23351,0 22.16216,9.92865 22.16216,22.16216v62.94054c0,12.23351 -9.92865,22.16216 -22.16216,22.16216h-119.67568c-12.23351,0 -22.16216,-9.92865 -22.16216,-22.16216z" fill="#000000" fill-rule="nonzero"/><path d="M207.48108,218.56216c-21.32,0 -38.56216,-17.24216 -38.56216,-38.56216c0,-21.32 17.24216,-38.56216 38.56216,-38.56216c21.32,0 38.56216,17.24216 38.56216,38.56216c0,21.32 -17.24216,38.56216 -38.56216,38.56216zM239.57189,180c0,-17.77405 -14.31676,-32.09081 -32.09081,-32.09081c-17.77405,0 -32.09081,14.31676 -32.09081,32.09081c0,17.77405 14.31676,32.09081 32.09081,32.09081c17.77405,0 32.09081,-14.31676 32.09081,-32.09081zM204.99892,156.24216c0,-1.4627 1.19676,-2.65946 2.65946,-2.65946c1.4627,0 2.65946,1.19676 2.65946,2.65946v22.82703l10.06162,10.06162c1.01946,1.01946 1.01946,2.70378 0,3.76757c-1.06378,1.01946 -2.74811,1.01946 -3.76757,0l-10.81514,-10.81514c-0.26595,-0.26595 -0.45802,-0.56144 -0.57622,-0.88649c-0.14775,-0.2955 -0.22162,-0.63532 -0.22162,-1.01946z" fill="#ffffff" fill-rule="evenodd"/></g></g></svg>